<?xml version="1.0" encoding="utf-8"?>
<!-- Generator: Adobe Illustrator 24.0.2, SVG Export Plug-In . SVG Version: 6.00 Build 0)  -->
<svg version="1.1" id="Calque_1" xmlns="http://www.w3.org/2000/svg" xmlns:xlink="http://www.w3.org/1999/xlink" x="0px" y="0px"
	 viewBox="0 0 1500 1500" style="enable-background:new 0 0 1500 1500;" xml:space="preserve">
<style type="text/css">
	.st0{fill:url(#SVGID_1_);}
</style>
<title>favicon</title>
<g>
	
		<linearGradient id="SVGID_1_" gradientUnits="userSpaceOnUse" x1="1072.0179" y1="6652.0996" x2="1907.7629" y2="7459.1694" gradientTransform="matrix(0.9976 -6.975647e-02 -6.975647e-02 -0.9976 -211.276 7855.7554)">
		<stop  offset="0" style="stop-color:#570052"/>
		<stop  offset="1" style="stop-color:#0B8793"/>
	</linearGradient>
	<path class="st0" d="M171,405.1l-21.9-93.7c64.6-90.9,148.9-166,246.5-219.9C476.5,46.9,565.2,18,656.8,6.3l17.5,135.3
		c-74.7,9.5-146.9,33.1-212.9,69.4c-75.3,41.6-140.8,98.7-192.4,167.5L171,405.1z M890.7,152.6c158.5,37.6,295.1,137.6,379,277.2
		l117-70.2C1280.8,182.7,1105.9,58.1,904.2,15.8l-75.7,61.1L890.7,152.6z M1420.2,789.5l-72.7,68c-10.1,58.2-28.7,114.6-55.4,167.4
		c-149.4,297.8-511.8,418.1-809.6,268.7C291.9,1198,166,1008.8,151.3,796.1l-136.1,9.5c28.5,407.6,382.1,714.9,789.6,686.3
		c346.2-24.2,629-285.8,680.1-629.1L1420.2,789.5z M1188.1,942.2l-54.8,94.9c-20.7,35.9-66.5,48.2-102.3,27.5c0,0-0.1,0-0.1-0.1
		l-1.8-1c-24.4-14-54.6-13.2-78.2,2c-8.6,5.5-17.4,10.5-26.4,15.3c-24.9,12.9-40.5,38.6-40.6,66.6v2c0,41.4-33.6,75-75,75
		c0,0,0,0,0,0H699.2c-41.4,0-75-33.6-75-75c0,0,0,0,0,0v-2c-0.1-28-15.7-53.7-40.6-66.6c-9-4.7-17.8-9.8-26.4-15.3
		c-23.7-15.2-53.8-16-78.2-2l-1.8,1c-35.8,20.7-81.7,8.5-102.4-27.4c0,0,0-0.1-0.1-0.1l-54.8-94.9c-20.7-35.9-8.4-81.7,27.5-102.5
		c24.1-13.9,38.9-39.6,38.9-67.4l-0.1-17.5l0.1-17.5c0-27.8-14.9-53.5-38.9-67.4c-35.9-20.7-48.2-66.6-27.5-102.4c0,0,0,0,0,0
		l54.8-94.9c20.7-35.9,66.5-48.2,102.4-27.5c0,0,0,0,0,0l1.8,1c24.4,14,54.6,13.2,78.2-2c8.6-5.4,17.4-10.5,26.4-15.3
		c24.9-12.9,40.5-38.6,40.6-66.6v-2c0-41.4,33.6-75,75-75c0,0,0,0,0,0h109.6c41.4,0,75,33.6,75,75c0,0,0,0,0,0v2
		c0.1,28,15.7,53.7,40.6,66.6c9,4.8,17.8,9.8,26.4,15.3c23.7,15.2,53.8,16,78.2,2l1.8-1c35.9-20.7,81.7-8.4,102.4,27.5c0,0,0,0,0,0
		l54.8,94.9c20.7,35.9,8.4,81.7-27.5,102.4c0,0,0,0,0,0l-0.1,0.1c-24,13.9-38.9,39.6-38.9,67.3l0.1,17.5l-0.1,17.5
		c0,27.8,14.8,53.4,38.9,67.3l0.1,0.1C1196.5,860.5,1208.8,906.4,1188.1,942.2C1188.1,942.2,1188.1,942.2,1188.1,942.2z
		 M932.2,754.9c0-98.4-79.8-178.2-178.1-178.2c-98.4,0-178.2,79.8-178.2,178.2c0,98.4,79.8,178.2,178.2,178.2c0,0,0,0,0,0
		C852.4,933.1,932.2,853.4,932.2,754.9z"/>
</g>
</svg>
